<svg width="100" height="31" fill="none" xmlns="http://www.w3.org/2000/svg"><path d="M14.671 22.315c-1.56 1.56-3.485 2.357-5.775 2.357-1.727 0-3.12-.465-4.183-1.394v7.469H0V8.042h4.647s2.49-.398 4.249-.398c2.29 0 4.215.797 5.775 2.357 1.56 1.56 2.357 3.618 2.357 6.174 0 2.522-.796 4.58-2.357 6.14zm-10.024-6.14c0 1.228.365 2.257 1.062 3.053.73.797 1.627 1.195 2.722 1.195s1.991-.398 2.688-1.195c.73-.796 1.096-1.825 1.096-3.053s-.365-2.258-1.096-3.054c-.696-.797-1.593-1.195-2.688-1.195-1.096 0-1.992.398-2.722 1.195-.697.796-1.062 1.825-1.062 3.054zM39.6 8.042h4.746v16.265H39.6v-1.195c-1.26 1.028-2.755 1.56-4.514 1.56-2.357 0-4.382-.797-6.041-2.424-1.66-1.626-2.49-3.651-2.49-6.074s.83-4.448 2.49-6.074c1.66-1.627 3.684-2.457 6.04-2.457 1.96 0 4.515.4 4.515.4zM38.437 19.03c.763-.83 1.161-1.826 1.161-2.954 0-2.257-1.626-4.05-4.149-4.05-1.162 0-2.124.399-2.888 1.196-.763.796-1.128 1.76-1.128 2.854 0 1.096.398 2.091 1.162 2.92.763.83 1.726 1.262 2.854 1.262 1.229 0 2.224-.398 2.988-1.228zM69.579 12.39v11.917h-4.714V8.042h9.974v4.348h-5.26z" fill="#28D223"/><path d="M14.867 1.072V5.42h4.55v18.887h4.712V1.072h-9.262zM79.659 0c1.757 0 3.104 1.347 3.104 3.105 0 1.683-1.421 3.067-3.104 3.067a3.08 3.08 0 01-3.067-3.067C76.592 1.347 77.976 0 79.659 0zM82.051 8.042h-4.746v16.265h4.746V8.042zM89.413 8.042l2.456 4.15 2.456-4.15h5.311l-5.112 7.9 5.477 8.365h-5.278l-2.854-4.614-2.822 4.614h-5.31l5.477-8.365-5.112-7.9h5.31zM54.562 30.746h-4.979l2.656-6.44-6.34-16.264h5.244l3.652 10.057 3.783-10.057h5.046l-9.062 22.704z" fill="#28D223"/></svg>